<?xml version="1.0" ?><!DOCTYPE svg  PUBLIC '-//W3C//DTD SVG 1.1//EN'  'http://www.w3.org/Graphics/SVG/1.1/DTD/svg11.dtd'><svg enable-background="new 0 0 64 64" height="64px" version="1.1" viewBox="0 0 64 64" width="64px" xml:space="preserve" xmlns="http://www.w3.org/2000/svg" xmlns:xlink="http://www.w3.org/1999/xlink"><g id="baby_x2C__care_x2C__mother_x2C__love_x2C__hug_x2C__Mother_x27_s_Day"><g id="XMLID_86_"><circle cx="32" cy="31.959" fill="#D1EDFF" r="27"/></g><g id="XMLID_730_"><g><path d="M53.494,32.458c-1.603-4.208-2.241-10.927-1.661-13.524c-1.427,2.817-10.329,10.773-10.329,15.608     c0,1.623-2.671,9.458-9.004,10.91c-6.094,1.396-16.313-2.702-16.313-2.702s-5.055,3.288-3.294,8.284     c0,0.001,0.001,0.002,0.001,0.003c4.887,4.894,11.643,7.922,19.105,7.922c9.555,0,17.943-4.967,22.742-12.455     c0.188-0.817,0.339-1.639,0.421-2.464C55.55,40.154,54.894,36.129,53.494,32.458z" fill="#FFFFFF"/></g><g><path d="M53.494,32.458c-1.603-4.208-2.241-10.927-1.661-13.524c-1.427,2.817-10.329,10.773-10.329,15.608     c0,1.623-2.671,9.458-9.004,10.91c-6.094,1.396-16.313-2.702-16.313-2.702s-4.394,4.327-2.593,8.787     c5.039,5.738,10.942,7.422,18.405,7.422c7.003,0,13.38-2.668,18.176-7.042c0.364-0.333,0.713-0.686,1.014-1.077     C55.244,45.587,54.843,35.997,53.494,32.458z" fill="#FFDEC9"/></g><g><g><path d="M17.451,43.219c-0.793-0.281-1.263-0.469-1.263-0.469s-4.691,3.502-3.247,8.332      c1.149,1.146,2.405,2.186,3.745,3.111c-1.741-1.254-2.964-2.613-3.227-3.984C12.271,44.021,16.477,43.944,17.451,43.219z" fill="#FFFFFF"/></g><g><path d="M43.243,29.938c-1.032,1.658-1.739,3.254-1.739,4.604c0,1.623-2.671,9.458-9.004,10.91      c-2.162,0.495-4.842,0.298-7.401-0.161c2.978,0.655,6.263,0.974,8.901,0.661c6.688-0.792,9.516-10.829,9.516-12.452      c0-1.146,0.459-2.346,1.175-3.563H43.243z" fill="#FFFFFF"/></g></g><g id="XMLID_737_"><path d="M26.828,7.976c-1.107,1.583-2.615,5.379-2.029,8.14c0.496,2.35,2.15,3.193,2.346,5.283     c0.195,2.088-2.002,4.317-2.273,5.192s2.301,1.311,2.481,1.896s-0.312,0.959-0.628,1.438c0.115,0.341,1.853,0.901,3.094,0.629     c-0.057,0.641-0.903,1.003-1.495,1.899c0.241,0.663,1.286,0.118,1.589,0.864c0.301,0.745-0.408,2.416,0.857,3.155     c2.943,1.724,8.174-1.482,12.299-3.732c0,0,8.39-6.408,8.723-14.893c5.532,1.094,6.729-5.773,5.718-10.067     c-1.783-7.577-7.742-6.543-8.284-2.082c-1.827-3.486-6.048-4.412-11.745-3.612C30.913,3.009,27.935,6.393,26.828,7.976z" fill="#FFFFFF"/></g><g id="XMLID_736_"><path d="M57.509,7.781c-0.421-1.789-1.509-2.723-2.27-3.62c-2.455-0.84-4.045,0.769-4.757,2.909     c-0.164,0.494-0.814,0.575-1.079,0.126C47.612,4.162,44.215,2.411,39.309,3.1c-6.566,0.922-9.695,4.167-10.802,5.75     c-1.106,1.583-2.691,4.542-1.809,7.767c0.634,2.316,1.454,2.675,1.649,4.764s-1.703,4.321-2.589,5.248     c-0.084,0.088,0.458,0.855,0.286,1.067c0.602,0.272,1.223,0.516,1.308,0.792c0.181,0.585-0.312,0.959-0.628,1.438     c0.115,0.341,1.853,0.901,3.094,0.629c-0.057,0.641-0.903,1.003-1.495,1.899c0.241,0.663,1.286,0.118,1.589,0.864     c0.301,0.745-0.408,2.415,0.857,3.155c2.943,1.724,8.896-1.277,12.73-4.036c0,0,7.988-3.457,8.291-14.589     C57.323,18.943,58.52,12.076,57.509,7.781z" fill="#FFDEC9"/></g><g id="XMLID_732_"><g><path d="M58.742,7.532c-1.115-4.742-4.192-6.248-6.293-6.131c-1.537,0.084-2.817,1.021-3.519,2.432      C47.249,1.947,44.608,0.999,41,1c-1.114,0-2.341,0.092-3.635,0.273c-6.612,0.928-9.862,4.303-11.211,6.232      c-1.244,1.779-3.688,7.053-0.803,11.729c0.48,0.777,1.002,1.352,1.084,2.225c0.107,1.157-2.102,4.498-2.24,4.875      c-0.49,1.33,1.312,2.045,2.715,2.103c0.098,0.381-0.781,0.823-0.763,1.612c0.013,0.497,1.476,1.776,1.524,2.521      c0.087,1.295,2.015,0.966,2.074,0.977c0.017,0.141-0.593,2.797,0.607,3.637c3.771,2.638,14.264-1.929,17.299-9.15      c-5.86,7.341-14.965,9.398-16.469,8.031c-0.323-0.293-0.404-0.923-0.375-1.728c0.016-0.449,0.031-0.915-0.135-1.327      c-0.215-0.532-1.36-0.548-1.721-0.657c0.207-0.023,1.188-1.389,1.086-2.11c-0.811,0.299-2.041-0.209-2.563-0.649      c0.215-0.362,0.513-0.871,0.336-1.446c-0.186-0.601-1.973-0.944-2.054-1.519s2.041-3.523,1.879-5.26      c-0.119-1.278-0.694-2.142-1.235-2.986c-2.369-3.698,0.006-8.37,1.1-9.934V8.447c1.195-1.709,4.077-4.848,10.092-5.546      C47.13,1.795,49.31,7.163,49.31,7.163s0.397-3.76,3.229-4.121c1.428-0.183,3.804,1.143,4.687,4.896      c0.618,2.631-0.17,6.419-1.892,8.204c-0.856,0.887-2.535,1.708-4.447,0.69c0.148,1.346,0.738,2.084,1.771,1.948      c1.527,0.067,2.844-0.443,3.859-1.497C58.665,15.055,59.479,10.661,58.742,7.532z" fill="#616161"/></g></g><g id="XMLID_731_"><path d="M31.221,20.384c-0.783,0.979-2.87,1.207-4.414,0.828c-0.766,0.462-0.809,0.946-2.773,1.041     c1.242,0.999,3.24,0.418,4.912,0.063C30.488,21.985,31.256,20.539,31.221,20.384z" fill="#616161"/></g></g><g><g><path d="M12.893,51.18C14.127,54.189,20,62.46,33.947,61.398c12.862-0.98,19.429-9.379,20.224-17.36     c0.358-3.605-0.531-7.247-1.721-11.029c-1.45-4.612-2.044-11.112-0.617-13.929c-0.58,2.597,0.459,9.317,2.062,13.524     c1.398,3.672,2.155,7.696,1.769,11.583c-0.856,8.608-7.882,17.592-21.609,18.708C33.363,62.95,32.678,62.995,32,63     C22.845,63.072,15.029,58.559,12.893,51.18z" fill="#616161"/></g></g><g id="XMLID_714_"><g id="XMLID_693_"><g id="XMLID_694_"><path d="M16.298,51.469c4.118,2.204,8.533,1.118,12.445-1.557c4.934-3.371,3.506-16.938-4.392-20.346      c-5.355-2.309-11.566,0.237-13.84,5.608c-1.449,3.426-0.758,7.484,1.265,10.47c-2.265,0.521-0.769,3.506,1.96,3.119      C14.15,50.004,14.836,50.688,16.298,51.469z" fill="#FFFFFF"/></g></g><g id="XMLID_692_"><path d="M17.309,51.311c3.439,2.213,7.712,1.147,11.435-1.398c4.49-3.067,3.709-14.577-2.418-19.191     c-5.351-2.298-11.554,0.249-13.825,5.613c-1.315,3.11-0.385,6.596,2.032,9.698c0.392,0.504,0.572,1.146,0.484,1.78     C14.854,48.976,15.665,50.253,17.309,51.311z" fill="#FFDEC9"/></g><g id="XMLID_685_"><g id="XMLID_686_"><g id="XMLID_689_"><g id="XMLID_691_"><ellipse cx="27.524" cy="46.689" fill="#FFCCBC" rx="1.096" ry="1.576" transform="matrix(0.5081 0.8613 -0.8613 0.5081 53.7544 -0.7385)"/></g><g id="XMLID_690_"><ellipse cx="19.464" cy="48.228" fill="#FFCCBC" rx="1.095" ry="1.577" transform="matrix(0.1199 -0.9928 0.9928 0.1199 -30.7493 61.7681)"/></g></g><g id="XMLID_687_"><g id="XMLID_688_"><ellipse cx="12.894" cy="47.069" fill="#FFDEC9" rx="0.646" ry="0.899" transform="matrix(-0.1494 0.9888 -0.9888 -0.1494 61.3607 41.35)"/></g></g></g></g><g><path d="M13.219,49.156c1.347,2.368,3.194,2.752,4.093,3.046l0.6-0.048c-1.296-0.648-3.433-1.392-3.754-3.854     c-3.375,0.833-4.118-2.676-1.335-2.5c-2.526-2.282-2.892-7.263-1.628-10.254c1.032-2.435,2.951-4.319,5.405-5.305     c2.427-0.973,5.077-0.942,7.464,0.087c5.104,2.2,7.018,8.278,6.226,12.878l-0.034,0.196c1.112,2.617-0.335,9.169-11.525,8.659     c8.511,3.097,14.275-4.877,12.961-8.625c0.802-5.142-1.298-12.012-7.034-14.485c-2.757-1.189-5.816-1.225-8.615-0.103     c-2.826,1.134-5.04,3.306-6.228,6.111c-1.366,3.227-0.779,6.829,1.383,10.204C8.891,45.5,9.274,49.405,13.219,49.156z" fill="#616161"/></g><g id="XMLID_630_"><g id="XMLID_682_"><g id="XMLID_683_"><path d="M28.492,43.295c-0.673,0.701-1.638,1.211-3.469,0.917c-0.142,0.485,1.042,1.128,2.186,0.9       C28.897,44.775,28.802,43.525,28.492,43.295z" fill="#616161"/></g></g></g><g id="XMLID_622_"><g id="XMLID_623_"><g id="XMLID_629_"><path d="M17.578,45.266c0.872,0.431,1.952,0.586,3.575-0.307c0.3,0.407-0.599,1.413-1.752,1.584       C17.697,46.795,17.366,45.588,17.578,45.266z" fill="#616161"/></g></g></g><g id="XMLID_617_"><g id="XMLID_620_"><g id="XMLID_621_"><path d="M22.405,48.601c0.516,0.258,1.755,0.223,2.466-0.391c0.167,0.38-0.226,1.21-1.1,1.373       C22.91,49.743,22.438,49.049,22.405,48.601z" fill="#616161"/></g></g></g><g id="XMLID_336_"><g id="XMLID_466_"><g id="XMLID_616_"><path d="M20.137,33.327c-0.869-0.12-1.377,0.167-1.586,0.74c-0.289,0.795,0.294,1.601,1.09,1.89       c1.078,0.392,2.273-0.165,2.666-1.241c0.558-1.532-0.003-3.946-3.661-4.443c3.979-0.133,4.931,2.314,4.488,4.554       c-0.321,1.63-1.979,2.659-3.805,2.12c-2.176-0.639-2.445-3.596-0.815-4.234C20.023,32.119,21.006,33.448,20.137,33.327z" fill="#616161"/></g></g></g></g><g><g><path d="M40.837,34.627C38.813,44.011,32.5,45.452,32.5,45.452c7.125-0.493,9.709-9.751,9.912-11.952     C42.412,33.5,40.915,34.269,40.837,34.627z" fill="#616161"/></g></g><g id="XMLID_87_"><path d="M26.551,10.2c0,0-0.288,2.774,2.536,4.563c3.879,2.459,6.706,0.367,9.526,1.867s3.703,4.729,3.703,4.729    s0.735-4.379-3.291-6.505c-2.534-1.338-5.408-0.4-8.75-1.375C27.275,12.605,26.551,10.2,26.551,10.2z" fill="#FFFFFF"/></g><g id="XMLID_59_"><path d="M26.551,10.2c0,0-0.489,2.975,2.335,4.764c3.881,2.458,6.708,0.367,9.528,1.867s3.703,4.729,3.703,4.729    s0.322-3.979-3.703-6.105c-2.535-1.338-5.908,0.101-8.964-1.566C26.394,12.223,26.551,10.2,26.551,10.2z" fill="#616161"/></g><g><path d="M37.563,51.929c0.438,0.321,0.793,0.759,0.518,1.468c-0.188,0.483-0.428,0.707-0.687,1.103    c0,0,1.861-0.954,1.98-1.431c0.276-1.096-0.04-2.033-0.802-2.737c-0.891-0.821-2.3-0.931-3.509-0.271    c-0.838,0.458-3.956,3.666-4.88,5.677c1.423-1.487,4-3.471,5.242-3.887C36.271,51.566,37.183,51.65,37.563,51.929z" fill="#FFFFFF"/></g><g><path d="M38.673,50.032c-0.891-0.822-2.301-1.031-3.51-0.372c-0.838,0.458-3.747,2.99-4.568,5.305    c1.012-1.381,3.842-3.981,5.195-4.291c0.982-0.224,1.486-0.016,1.936,0.383c0.417,0.371,0.729,1.131,0.455,1.84    c-1.344,3.45-4.766,4.633-6.159,5.011c-6.366,1.729-13.584-1.627-14.11-5.753l-0.59-0.041c1.129,6.334,9.802,8.505,15.571,6.7    c3.294-1.03,5.967-3.604,6.582-6.045C39.75,51.672,39.435,50.736,38.673,50.032z" fill="#616161"/></g></g></svg>